<svg xmlns="http://www.w3.org/2000/svg" viewBox="0 0 80 80" width="80px" height="80px"
				><path fill="#a3b7cc" d="M40 2.5A37.5 37.5 0 1 0 40 77.5A37.5 37.5 0 1 0 40 2.5Z" /><path
					fill="#66798f"
					d="M40,3c20.402,0,37,16.598,37,37S60.402,77,40,77S3,60.402,3,40S19.598,3,40,3 M40,2 C19.013,2,2,19.013,2,40s17.013,38,38,38s38-17.013,38-38S60.987,2,40,2L40,2z"
				/><path
					fill="#f2faff"
					stroke="#66798f"
					stroke-miterlimit="10"
					d="M75.604,48.336c0-11.533-9.128-21.855-20.268-23.297 c-0.287-0.032-0.556-0.063-0.825-0.094c-2.587,4.51-7.438,7.555-13.01,7.555c-8.284,0-15-6.716-15-15 c0-8.182,6.554-14.821,14.696-14.985C41.122,2.508,41.047,2.5,40.97,2.5C28.638,2.5,16.5,12.668,16.5,25 c0,4.652,0.913,8.407,2.18,11.541c0.273-0.015,0.543-0.041,0.82-0.041c8.284,0,15,6.716,15,15c0,8.284-6.716,15-15,15 c-3.162,0-6.092-0.984-8.511-2.655c3.953,3.897,8.748,6.655,14.757,6.655c8.929,0,16.973-2.549,21.604-10.228 c-1.786-2.469-2.85-5.493-2.85-8.772c0-8.284,6.716-15,15-15c5.867,0,10.933,3.376,13.398,8.283 c1.324,2.332,2.079,5.001,2.079,7.761c0,0.449-0.028,0.89-0.067,1.329C75.356,52.1,75.604,50.248,75.604,48.336z"
				/></svg>